<?xml version="1.0" encoding="utf-8"?>
<!-- Generator: Adobe Illustrator 16.0.0, SVG Export Plug-In . SVG Version: 6.00 Build 0)  -->
<!DOCTYPE svg PUBLIC "-//W3C//DTD SVG 1.1//EN" "http://www.w3.org/Graphics/SVG/1.1/DTD/svg11.dtd">
<svg version="1.1" id="Calque_1" xmlns="http://www.w3.org/2000/svg" xmlns:xlink="http://www.w3.org/1999/xlink" x="0px" y="0px"
	 width="55px" height="55px" viewBox="0 0 55 55" enable-background="new 0 0 55 55" xml:space="preserve">
<path fill="#231F20" d="M10.146,7.774C-1.62,18.277-3.414,35.458,6.137,46.158c9.551,10.699,26.826,10.859,38.591,0.357
	c11.766-10.504,13.561-27.685,4.008-38.385C39.186-2.569,21.911-2.729,10.146,7.774z M42.342,44.705
	c-10.65,9.507-26.27,9.362-34.916-0.323C-1.22,34.697,0.403,19.16,11.053,9.653s26.27-9.362,34.916,0.323
	C54.614,19.662,52.992,35.198,42.342,44.705z M25.588,13.425L11.287,26.191c-0.558,0.498-0.644,1.321-0.19,1.828l11.651,13.052
	c0.453,0.507,1.28,0.515,1.838,0.018l14.353-12.812c0.557-0.499,0.643-1.321,0.189-1.828l-11.65-13.052
	C26.973,12.935,26.146,12.927,25.588,13.425z M37.815,27.282L25.542,38.237l-9.963-11.161l12.324-11l9.962,11.161L37.815,27.282z"/>
</svg>
